<?xml version="1.0" encoding="utf-8"?>
<!-- Generator: Adobe Illustrator 18.0.0, SVG Export Plug-In . SVG Version: 6.00 Build 0)  -->
<!DOCTYPE svg PUBLIC "-//W3C//DTD SVG 1.1//EN" "http://www.w3.org/Graphics/SVG/1.1/DTD/svg11.dtd">
<svg version="1.1" xmlns="http://www.w3.org/2000/svg" xmlns:xlink="http://www.w3.org/1999/xlink" x="0px" y="0px"
	 viewBox="3.4 192 950.7 166.7" enable-background="new 3.4 192 950.7 166.7" xml:space="preserve">
<g id="Layer_2">
	<rect x="0.6" y="186.3" fill="#262626" width="962.3" height="180"/>
</g>
<g id="Layer_1">
	<g>
		<g>
			<path fill="#FFFFFF" d="M921.6,257c17.3,0,26.9,12.8,26.9,28.5c0,1.9-0.3,5.4-0.3,5.4h-41.6c1.3,10.6,9,16.3,18.2,16.3
				c9.6,0,17-6.7,17-6.7l6.4,10.6c0,0-9.3,9-24.3,9c-19.8,0-32.3-14.4-32.3-31.7C891.2,269.8,903.7,257,921.6,257z M933.1,280.6
				c-0.3-7.4-5.1-12.2-11.5-12.2c-7.7,0-13.1,4.5-14.7,12.2H933.1z"/>
			<path fill="#FFFFFF" d="M354.6,257c17.3,0,26.9,12.8,26.9,28.5c0,1.9-0.3,5.4-0.3,5.4h-41.6c1.3,10.6,9,16.3,18.2,16.3
				c9.6,0,17-6.7,17-6.7l6.4,10.6c0,0-9.3,9-24.3,9c-19.8,0-32.3-14.4-32.3-31.7C323.8,269.8,336.6,257,354.6,257z M366.1,280.6
				c-0.3-7.4-5.1-12.2-11.2-12.2c-7.7,0-13.1,4.5-14.7,12.2H366.1z"/>
			<path fill="#FFFFFF" d="M528.3,257c17.3,0,26.9,12.8,26.9,28.5c0,1.9-0.3,5.4-0.3,5.4h-41.6c1.3,10.6,9,16.3,18.2,16.3
				c9.6,0,17-6.7,17-6.7l6.4,10.6c0,0-9.3,9-24.3,9c-19.8,0-32.3-14.4-32.3-31.7C497.6,269.8,510.1,257,528.3,257z M539.5,280.6
				c-0.3-7.4-5.1-12.2-11.2-12.2c-7.7,0-13.1,4.5-14.7,12.2H539.5z"/>
			<path fill="#FFFFFF" d="M768,273.6c0-1.9-1-2.6-2.6-2.6h-4.8v-12.8h13.8c5.4,0,8,2.6,8,6.7v1.9c0,1.3-0.3,2.6-0.3,2.6h0.3
				c2.6-5.1,9-12.5,21.4-12.5c13.4,0,21.1,7,21.1,23v23.7c0,1.6,1,2.6,2.6,2.6h4.8V319h-14.4c-5.8,0-8-2.2-8-8v-27.5
				c0-7.4-1.9-12.2-9.6-12.2c-8,0-14.1,5.1-16.3,12.2c-1,2.6-1.3,5.1-1.3,8V319H768V273.6z"/>
			<path fill="#FFFFFF" d="M723.8,257c18.6,0,33,13.1,33,31.7s-14.7,31.7-33,31.7s-33-13.1-33-31.7C690.9,270.1,705.6,257,723.8,257
				z M723.8,307.2c9.9,0,17.9-7.7,17.9-18.9c0-11.2-8-18.9-17.9-18.9c-9.6,0-17.9,7.7-17.9,18.9
				C705.9,299.5,714.2,307.2,723.8,307.2z"/>
			<path fill="#FFFFFF" d="M683.8,288.3c0,18.6-10.6,31.7-26.9,31.7c-13.1,0-18.2-8.6-18.2-8.6h-0.3c0,0,0.3,2.2,0.3,5.1v25.6H624
				v-68.5c0-1.9-1-2.6-2.6-2.6h-4.8v-12.8h13.1c5.4,0,7.7,2.2,7.7,5.4c0,1.3,0,2.2,0,2.2h0.3c0,0,5.1-9,18.6-9
				C672.3,257,683.8,269.1,683.8,288.3z M653.4,307.2c9,0,15-7.4,15-18.9c0-11.8-7-18.6-15-18.6c-9.9,0-15,9.3-15,18.6
				C638.4,301.8,645.8,307.2,653.4,307.2z"/>
			<path fill="#FFFFFF" d="M569.9,299.5c0,0,7.7,9,17.9,9c4.5,0,8.3-1.9,8.3-5.8c0-8.6-31.7-8.3-31.7-27.8
				c0-12.2,10.9-17.6,23.4-17.6c8,0,21.1,2.6,21.1,12.5v6.4h-13.1v-2.9c0-2.9-4.2-4.2-7.7-4.2c-5.4,0-9,1.9-9,5.4
				c0,9.6,32,7.7,32,27.5c0,11.2-9.9,18.6-23,18.6c-16.6,0-25-10.9-25-10.9L569.9,299.5z"/>
			<path fill="#FFFFFF" d="M844.5,299.5c0,0,7.7,9,17.9,9c4.5,0,8.3-1.9,8.3-5.8c0-8.6-31.7-8.3-31.7-27.8
				c0-12.2,10.9-17.6,23.4-17.6c8,0,21.1,2.6,21.1,12.5v6.4h-13.1v-2.9c0-2.9-4.2-4.2-7.7-4.2c-5.4,0-9,1.9-9,5.4
				c0,9.6,32,7.7,32,27.5c0,11.2-9.9,18.6-23,18.6c-16.6,0-25-10.9-25-10.9L844.5,299.5z"/>
			<path fill="#FFFFFF" d="M420.8,305.9c-4.2,0-11.8-1.3-11.8-11.2v-24.3h13.8V265c0-4.5-1.9-6.4-6.4-6.4h-3.5h-3.5v-16.6h-14.7
				v16.3h-8.3v11.8h7.7v26.2c0,20.2,16.6,22.7,25,22.7c2.9,0,4.5-0.3,4.5-0.3v-13.1C423.7,305.6,422.4,305.9,420.8,305.9z"/>
			<path fill="#FFFFFF" d="M279.7,233c20.5,0,30.7,10.6,30.7,10.6l-8.6,11.2c0,0-8.6-7.4-21.4-7.4c-14.4,0-26.9,11.5-26.9,28.5
				c0,18.2,12.5,29.4,27.5,29.4c13.4,0,21.4-8.6,21.4-8.6v-6.4c0-1.9-1-2.6-2.6-2.6h-5.4v-13.1h13.8c5.8,0,8,2.2,8,8v35.8H303v-4.2
				c0-1.9,0-3.5,0-3.5h-0.3c0,0-9,9-24.6,9c-22.1,0-41-17-41-43.8C237.1,251.8,255.4,233,279.7,233z"/>
			<path fill="#FFFFFF" d="M432,234.6h30.1c15.4,0,26.2,9.6,26.2,25.3c0,15-10.6,21.4-14.1,22.1v0.3c0,0,2.6,1.3,4.2,4.2l8,16.3
				c1.3,2.6,3.2,2.9,5.8,2.9h1.6v13.1h-8c-6.4,0-9-1-11.8-6.4L463,291.2c-1.9-3.2-3.5-3.8-8-3.8h-7.7v31.4H432V234.6z M459.8,273.9
				c7.7,0,12.5-4.8,12.5-13.1c0-8.3-4.5-13.1-12.2-13.1h-12.5v26.2H459.8z"/>
		</g>
		<g>
			<g>
				<path fill="#00AEEF" d="M195.2,327c0,4.5-3.5,8-8,8h-168c-4.5,0-8-3.5-8-8V225.9c0-4.5,3.5-8,8-8h168c4.5,0,8,3.5,8,8V327z"/>
			</g>
			<g opacity="0.4" enable-background="new    ">
				<g>
					<defs>
						<path id="SVGID_1_" d="M195.2,327c0,4.5-3.5,8-8,8h-168c-4.5,0-8-3.5-8-8V225.9c0-4.5,57.9,80,107.2,74.6
							c49.6-5.1,76.8-79,76.8-74.6V327z"/>
					</defs>
					<clipPath id="SVGID_2_">
						<use xlink:href="#SVGID_1_"  overflow="visible"/>
					</clipPath>
					
						<radialGradient id="SVGID_3_" cx="60.7" cy="521.9001" r="50.8001" gradientTransform="matrix(3.2 0 0 -3.2 0 2005.12)" gradientUnits="userSpaceOnUse">
						<stop  offset="0" style="stop-color:#006991"/>
						<stop  offset="0.1413" style="stop-color:#006C96;stop-opacity:0.8587"/>
						<stop  offset="0.3718" style="stop-color:#0079A5;stop-opacity:0.6282"/>
						<stop  offset="0.6627" style="stop-color:#008DBF;stop-opacity:0.3373"/>
						<stop  offset="1" style="stop-color:#29AAE1;stop-opacity:0"/>
					</radialGradient>
					<path clip-path="url(#SVGID_2_)" fill="url(#SVGID_3_)" d="M356.8,335c0,89.9-72.6,162.6-162.6,162.6S31.7,425,31.7,335
						s72.6-162.6,162.6-162.6C284.2,172.2,356.8,245.1,356.8,335z"/>
				</g>
			</g>
			<g opacity="0.3" enable-background="new    ">
				<g>
					<defs>
						<path id="SVGID_4_" d="M106.9,297.3c-52.5,0-95.4-71.4-95.4-71.4c0-4.5,3.5-8,8-8h168c4.2,0,7.7,3.5,7.7,8
							C195.2,225.9,159.7,297.3,106.9,297.3z"/>
					</defs>
					<clipPath id="SVGID_5_">
						<use xlink:href="#SVGID_4_"  overflow="visible"/>
					</clipPath>
					
						<radialGradient id="SVGID_6_" cx="55.4" cy="561.6" r="47.4" gradientTransform="matrix(3.2 0 0 -3.2 0 2005.12)" gradientUnits="userSpaceOnUse">
						<stop  offset="0" style="stop-color:#FFFFFF"/>
						<stop  offset="1" style="stop-color:#FFFFFF;stop-opacity:0"/>
					</radialGradient>
					<circle clip-path="url(#SVGID_5_)" fill="url(#SVGID_6_)" cx="177.3" cy="208" r="151.7"/>
				</g>
			</g>
			<path fill="#FFFFFF" d="M193.3,220.8c-21.8,33.9-55.7,64.6-90.2,64c-12.8-0.3-27.5-4.2-39.7-14.1c-9.3-7.4-18.6-19.2-22.1-36.2
				c-1.6,0-2.6,0-3.8,0c-5.8,0-9,5.1-8.3,9.6c0,1,0.3,2.2,0.6,3.5c2.6,16.3,12.5,34.9,28.5,46.7c12.5,9.3,28.2,15.4,45.1,15.4
				c30.7,0,63.4-19.5,91.8-69.4v-14.4C195.2,224,194.6,222.4,193.3,220.8z"/>
		</g>
	</g>
</g>
</svg>
