<svg xmlns="http://www.w3.org/2000/svg" viewBox="0 0 1640 608" width="1640" height="608" preserveAspectRatio="xMidYMid meet" style="width: 100%; height: 100%; transform: translate3d(0px, 0px, 0px);"><defs><clipPath id="__lottie_element_9"><rect width="1640" height="608" x="0" y="0"></rect></clipPath><filter id="__lottie_element_12" filterUnits="objectBoundingBox" x="0%" y="0%" width="100%" height="100%"><feColorMatrix type="matrix" color-interpolation-filters="sRGB" values="0 0 0 0 1 0 0 0 0 0.800000011920929 0 0 0 0 0 0 0 0 1 0"></feColorMatrix></filter><filter id="__lottie_element_15" filterUnits="objectBoundingBox" x="0%" y="0%" width="100%" height="100%"><feColorMatrix type="matrix" color-interpolation-filters="sRGB" values="0 0 0 0 1 0 0 0 0 0.800000011920929 0 0 0 0 0 0 0 0 1 0"></feColorMatrix></filter><filter id="__lottie_element_18" filterUnits="objectBoundingBox" x="0%" y="0%" width="100%" height="100%"><feColorMatrix type="matrix" color-interpolation-filters="sRGB" values="0 0 0 0 1 0 0 0 0 0.800000011920929 0 0 0 0 0 0 0 0 1 0"></feColorMatrix></filter><filter id="__lottie_element_21" filterUnits="objectBoundingBox" x="0%" y="0%" width="100%" height="100%"><feColorMatrix type="matrix" color-interpolation-filters="sRGB" values="0 0 0 0 1 0 0 0 0 0.800000011920929 0 0 0 0 0 0 0 0 1 0"></feColorMatrix></filter><filter id="__lottie_element_24" filterUnits="objectBoundingBox" x="0%" y="0%" width="100%" height="100%"><feColorMatrix type="matrix" color-interpolation-filters="sRGB" values="0 0 0 0 0.0313725508749485 0 0 0 0 0.6549019813537598 0 0 0 0 0.25882354378700256 0 0 0 1 0"></feColorMatrix></filter><filter id="__lottie_element_27" filterUnits="objectBoundingBox" x="0%" y="0%" width="100%" height="100%"><feColorMatrix type="matrix" color-interpolation-filters="sRGB" values="0 0 0 0 0.0313725508749485 0 0 0 0 0.6549019813537598 0 0 0 0 0.25882354378700256 0 0 0 1 0"></feColorMatrix></filter><filter id="__lottie_element_30" filterUnits="objectBoundingBox" x="0%" y="0%" width="100%" height="100%"><feColorMatrix type="matrix" color-interpolation-filters="sRGB" values="0 0 0 0 0.0313725508749485 0 0 0 0 0.6549019813537598 0 0 0 0 0.25882354378700256 0 0 0 1 0"></feColorMatrix></filter><filter id="__lottie_element_33" filterUnits="objectBoundingBox" x="0%" y="0%" width="100%" height="100%"><feColorMatrix type="matrix" color-interpolation-filters="sRGB" values="0 0 0 0 0.0313725508749485 0 0 0 0 0.6549019813537598 0 0 0 0 0.25882354378700256 0 0 0 1 0"></feColorMatrix></filter><filter id="__lottie_element_85" filterUnits="objectBoundingBox" x="0%" y="0%" width="100%" height="100%"><feColorMatrix type="matrix" color-interpolation-filters="sRGB" values="1 0 0 0 0 0 1 0 0 0 0 0 1 0 0 0 0 0 1 0"></feColorMatrix></filter><filter id="__lottie_element_88" filterUnits="objectBoundingBox" x="0%" y="0%" width="100%" height="100%"><feColorMatrix type="matrix" color-interpolation-filters="sRGB" values="1 0 0 0 0 0 1 0 0 0 0 0 1 0 0 0 0 0 1 0"></feColorMatrix></filter></defs><g clip-path="url(#__lottie_element_9)"><g transform="matrix(1,0,0,1,247.1199951171875,334.3739929199219)" opacity="1" style="display: block;"><path fill="rgb(38,41,44)" fill-opacity="1" d=" M18.36,-121.09 C64.26,-121.09 95.12,-84.73 95.12,-30.63 C95.12,22.63 62.6,59.81 16.14,59.81 C-6.02,59.81 -20.22,50.33 -27.64,43.45 C-27.58,45.09 -27.56,46.91 -27.56,48.85 C-27.56,48.85 -27.56,121.09 -27.56,121.09 C-27.56,121.09 -75.1,121.09 -75.1,121.09 C-75.1,121.09 -75.1,-71.35 -75.1,-71.35 C-75.1,-74.15 -76,-75.03 -78.76,-75.03 C-78.76,-75.03 -95.12,-75.03 -95.12,-75.03 C-95.12,-75.03 -95.12,-117.17 -95.12,-117.17 C-95.12,-117.17 -55.22,-117.17 -55.22,-117.17 C-36.86,-117.17 -32.16,-107.83 -31.26,-100.63 C-23.8,-108.97 -8.34,-121.09 18.36,-121.09z M-28.52,-29.65 C-28.52,-6.73 -16.88,18.01 8.72,18.01 C27.7,18.01 46.88,3.19 46.88,-29.99 C46.88,-59.07 31.8,-78.61 9.34,-78.61 C-8.96,-78.61 -28.52,-65.75 -28.52,-29.65z"></path><g opacity="1" transform="matrix(2,0,0,2,0,0)"><g opacity="1" transform="matrix(1,0,0,1,0,0)"></g></g></g><g transform="matrix(1,0,0,1,381.6449890136719,128.43032836914062)" opacity="1" style="display: none;"><path fill="rgb(38,41,44)" fill-opacity="1" d=" M21.19,-2.53 C21.19,-13.57 12.22,-22.53 1.19,-22.53 C1.19,-22.53 -1.19,-22.53 -1.19,-22.53 C-12.23,-22.53 -21.19,-13.57 -21.19,-2.53 C-21.19,-2.53 -21.19,50.08 -21.19,50.08 C-21.19,61.12 -12.23,70.08 -1.19,70.08 C-1.19,70.08 1.19,70.08 1.19,70.08 C12.22,70.08 21.19,61.12 21.19,50.08 C21.19,50.08 21.19,-2.53 21.19,-2.53z"></path><g opacity="1" transform="matrix(2,0,0,2,0,0)"></g></g><g transform="matrix(1,0,0,1,382.30999755859375,303.7309875488281)" opacity="1" style="display: block;"><path fill="rgb(38,41,44)" fill-opacity="1" d=" M23.78,41.07 C23.78,43.71 24.8,44.77 27.44,44.77 C27.44,44.77 43.8,44.77 43.8,44.77 C43.8,44.77 43.8,86.53 43.8,86.53 C43.8,86.53 1.26,86.53 1.26,86.53 C-15.82,86.53 -23.78,78.41 -23.78,60.91 C-23.78,60.91 -23.78,-40.71 -23.78,-40.71 C-23.78,-43.49 -24.68,-44.39 -27.44,-44.39 C-27.44,-44.39 -43.8,-44.39 -43.8,-44.39 C-43.8,-44.39 -43.8,-86.53 -43.8,-86.53 C-43.8,-86.53 -1.3,-86.53 -1.3,-86.53 C15.56,-86.53 23.78,-78.13 23.78,-60.91 C23.78,-60.91 23.78,41.07 23.78,41.07z"></path><g opacity="1" transform="matrix(2,0,0,2,0,0)"></g></g><g style="display: none;" transform="matrix(1,0,0,1,381.6449890136719,85.21942138671875)" opacity="1"><path fill="rgb(8,167,66)" fill-opacity="1" d=" M21.19,-2.53 C21.19,-13.57 12.22,-22.53 1.19,-22.53 C1.19,-22.53 -1.19,-22.53 -1.19,-22.53 C-12.23,-22.53 -21.19,-13.57 -21.19,-2.53 C-21.19,-2.53 -21.19,25.61 -21.19,25.61 C-21.19,36.65 -12.23,45.61 -1.19,45.61 C-1.19,45.61 1.19,45.61 1.19,45.61 C12.22,45.61 21.19,36.65 21.19,25.61 C21.19,25.61 21.19,-2.53 21.19,-2.53z"></path><g opacity="1" transform="matrix(2,0,0,2,0,0)"></g></g><g filter="url(#__lottie_element_88)" style="display: none;"><path></path><g></g></g><g filter="url(#__lottie_element_85)" style="display: none;"><path></path><path></path><g></g></g><g transform="matrix(1,0,0,1,381.6449890136719,174.58499145507812)" opacity="1" style="display: block;"><path fill="rgb(38,41,44)" fill-opacity="1" d=" M21.19,-22.53 C21.19,-22.53 -21.19,-22.53 -21.19,-22.53 C-21.19,-22.53 -21.19,22.53 -21.19,22.53 C-21.19,22.53 21.19,22.53 21.19,22.53 C21.19,22.53 21.19,-22.53 21.19,-22.53z"></path><path fill="rgb(38,41,44)" fill-opacity="1" d=" M21.19,-22.53 C21.19,-22.53 -21.19,-22.53 -21.19,-22.53 C-21.19,-22.53 -21.19,22.53 -21.19,22.53 C-21.19,22.53 21.19,22.53 21.19,22.53 C21.19,22.53 21.19,-22.53 21.19,-22.53z"></path><g opacity="1" transform="matrix(2,0,0,2,0,0)"></g></g><g transform="matrix(1,0,0,1,511.9259948730469,334.3739929199219)" opacity="1" style="display: block;"><path fill="rgb(38,41,44)" fill-opacity="1" d=" M18.39,-121.09 C64.27,-121.09 95.11,-84.73 95.11,-30.63 C95.11,22.63 62.63,59.81 16.15,59.81 C-5.99,59.81 -20.25,50.33 -27.63,43.45 C-27.57,45.09 -27.53,46.91 -27.53,48.85 C-27.53,48.85 -27.53,121.09 -27.53,121.09 C-27.53,121.09 -75.11,121.09 -75.11,121.09 C-75.11,121.09 -75.11,-71.35 -75.11,-71.35 C-75.11,-74.15 -76.01,-75.03 -78.75,-75.03 C-78.75,-75.03 -95.11,-75.03 -95.11,-75.03 C-95.11,-75.03 -95.11,-117.17 -95.11,-117.17 C-95.11,-117.17 -55.19,-117.17 -55.19,-117.17 C-36.83,-117.17 -32.15,-107.83 -31.27,-100.63 C-23.77,-108.97 -8.35,-121.09 18.39,-121.09z M8.69,18.01 C27.71,18.01 46.89,3.19 46.89,-29.99 C46.89,-59.07 31.81,-78.61 9.35,-78.61 C-8.97,-78.61 -28.53,-65.75 -28.53,-29.65 C-28.53,-6.73 -16.85,18.01 8.69,18.01z"></path><g opacity="1" transform="matrix(2,0,0,2,0,0)"><g opacity="1" transform="matrix(1,0,0,1,0,0)"></g></g></g><g transform="matrix(1,0,0,1,691.197021484375,303.74700927734375)" opacity="1" style="display: block;"><path fill="rgb(38,41,44)" fill-opacity="1" d=" M5.34,-90.45 C51.02,-90.45 81.72,-57.37 81.72,-8.15 C81.72,-3.15 80.8,7.07 80.72,7.49 C80.72,7.49 80.44,10.63 80.44,10.63 C80.44,10.63 -32.32,10.63 -32.32,10.63 C-28.2,33.65 -10.76,48.33 13.08,48.33 C37.9,48.33 56.7,30.85 56.9,30.69 C56.9,30.69 59.98,27.75 59.98,27.75 C59.98,27.75 80.7,62.45 80.7,62.45 C80.7,62.45 78.78,64.35 78.78,64.35 C77.7,65.43 52.1,90.45 10.2,90.45 C-43.06,90.45 -81.72,52.41 -81.72,0.01 C-81.72,-53.25 -45.9,-90.45 5.34,-90.45z M-30.55,-24.97 C-30.55,-24.97 32.61,-24.97 32.61,-24.97 C30.67,-40.59 19.65,-51.59 5.33,-51.59 C-12.49,-51.59 -25.39,-41.95 -30.55,-24.97z"></path><g opacity="1" transform="matrix(2,0,0,2,0,0)"><g opacity="1" transform="matrix(1,0,0,1,0,0)"></g></g></g><g transform="matrix(1,0,0,1,870.4219970703125,273.1180114746094)" opacity="1" style="display: block;"><path fill="rgb(38,41,44)" fill-opacity="1" d=" M75.45,71.68 C75.45,74.32 76.47,75.38 79.09,75.38 C79.09,75.38 95.11,75.38 95.11,75.38 C95.11,75.38 95.11,117.14 95.11,117.14 C95.11,117.14 53.91,117.14 53.91,117.14 C36.13,117.14 31.33,107.68 30.37,100.22 C22.99,108.78 7.87,121.08 -18.37,121.08 C-64.27,121.08 -95.11,84.74 -95.11,30.62 C-95.11,-22.64 -62.91,-59.84 -16.77,-59.84 C6.83,-59.84 20.53,-51.42 27.55,-45.04 C27.55,-45.04 27.55,-75.24 27.55,-75.24 C27.55,-78.04 26.65,-78.92 23.89,-78.92 C23.89,-78.92 7.53,-78.92 7.53,-78.92 C7.53,-78.92 7.53,-121.08 7.53,-121.08 C7.53,-121.08 50.03,-121.08 50.03,-121.08 C67.11,-121.08 75.45,-112.68 75.45,-95.46 C75.45,-95.46 75.45,71.68 75.45,71.68z M-9.36,79.27 C8.94,79.27 28.52,66.43 28.52,30.31 C28.52,6.57 17,-17.35 -8.7,-17.35 C-31.38,-17.35 -46.6,1.91 -46.6,30.63 C-46.6,60.17 -31.96,79.27 -9.36,79.27z"></path><g opacity="1" transform="matrix(2,0,0,2,0,0)"><g opacity="1" transform="matrix(1,0,0,1,0,0)"></g></g></g><g transform="matrix(1,0,0,1,1019.2269897460938,302.5889892578125)" opacity="1" style="display: block;"><path fill="rgb(38,41,44)" fill-opacity="1" d=" M52.12,-87.67 C55.92,-87.67 59.97,-87.01 60.11,-86.97 C60.11,-86.97 63.01,-86.49 63.01,-86.49 C63.01,-86.49 63.01,-38.79 63.01,-38.79 C63.01,-38.79 59.02,-39.39 59.02,-39.39 C58.96,-39.41 54.99,-39.99 49.55,-39.99 C34.15,-39.99 15.12,-31.49 7.96,-7.61 C5.72,0.53 4.57,9.31 4.57,18.43 C4.57,18.43 4.57,87.67 4.57,87.67 C4.57,87.67 -42.98,87.67 -42.98,87.67 C-42.98,87.67 -42.98,-39.57 -42.98,-39.57 C-42.98,-42.35 -43.9,-43.25 -46.64,-43.25 C-46.64,-43.25 -62.99,-43.25 -62.99,-43.25 C-62.99,-43.25 -62.99,-85.39 -62.99,-85.39 C-62.99,-85.39 -22.11,-85.39 -22.11,-85.39 C-5.27,-85.39 3.3,-77.41 3.3,-61.73 C3.3,-61.73 3.3,-57.79 3.3,-57.79 C14.1,-76.15 32.32,-87.67 52.12,-87.67z"></path><g opacity="1" transform="matrix(2,0,0,2,0,0)"></g></g><g style="display: none;"><path></path><g></g></g><g transform="matrix(1,0,0,1,1128.1739501953125,303.7309875488281)" opacity="1" style="display: block;"><path fill="rgb(38,41,44)" fill-opacity="1" d=" M21.73,41.07 C21.73,43.71 22.75,44.77 25.37,44.77 C25.37,44.77 41.77,44.77 41.77,44.77 C41.77,44.77 41.77,86.53 41.77,86.53 C41.77,86.53 -0.75,86.53 -0.75,86.53 C-17.85,86.53 -25.83,78.41 -25.83,60.91 C-25.83,60.91 -25.83,-40.71 -25.83,-40.71 C-25.83,-43.49 -26.71,-44.39 -29.49,-44.39 C-29.49,-44.39 -41.77,-44.39 -41.77,-44.39 C-41.77,-44.39 -41.77,-86.53 -41.77,-86.53 C-41.77,-86.53 -3.33,-86.53 -3.33,-86.53 C13.53,-86.53 21.73,-78.13 21.73,-60.91 C21.73,-60.91 21.73,41.07 21.73,41.07z"></path><g opacity="1" transform="matrix(2,0,0,2,0,0)"></g></g><g style="display: none;"><path></path><g></g></g><g style="display: none;"><path></path><g></g></g><g style="display: none;" transform="matrix(1,0,0,1,1125.469970703125,139.30813598632812)" opacity="1"><path fill="rgb(255,204,0)" fill-opacity="1" d=" M21.19,-26.64 C21.19,-37.68 12.22,-46.64 1.19,-46.64 C1.19,-46.64 -1.19,-46.64 -1.19,-46.64 C-12.23,-46.64 -21.19,-37.68 -21.19,-26.64 C-21.19,-26.64 -21.19,2.53 -21.19,2.53 C-21.19,13.57 -12.23,22.53 -1.19,22.53 C-1.19,22.53 1.19,22.53 1.19,22.53 C12.22,22.53 21.19,13.57 21.19,2.53 C21.19,2.53 21.19,-26.64 21.19,-26.64z"></path><path fill="rgb(255,204,0)" fill-opacity="1" d=" M21.19,-26.64 C21.19,-37.68 12.22,-46.64 1.19,-46.64 C1.19,-46.64 -1.19,-46.64 -1.19,-46.64 C-12.23,-46.64 -21.19,-37.68 -21.19,-26.64 C-21.19,-26.64 -21.19,2.53 -21.19,2.53 C-21.19,13.57 -12.23,22.53 -1.19,22.53 C-1.19,22.53 1.19,22.53 1.19,22.53 C12.22,22.53 21.19,13.57 21.19,2.53 C21.19,2.53 21.19,-26.64 21.19,-26.64z"></path><g opacity="1" transform="matrix(2,0,0,2,0,0)"></g></g><g transform="matrix(1,0,0,1,1125.469970703125,174.58499145507812)" opacity="1" style="display: block;"><path fill="rgb(38,41,44)" fill-opacity="1" d=" M21.19,-22.53 C21.19,-22.53 -21.19,-22.53 -21.19,-22.53 C-21.19,-22.53 -21.19,22.53 -21.19,22.53 C-21.19,22.53 21.19,22.53 21.19,22.53 C21.19,22.53 21.19,-22.53 21.19,-22.53z"></path><path fill="rgb(38,41,44)" fill-opacity="1" d=" M21.19,-22.53 C21.19,-22.53 -21.19,-22.53 -21.19,-22.53 C-21.19,-22.53 -21.19,22.53 -21.19,22.53 C-21.19,22.53 21.19,22.53 21.19,22.53 C21.19,22.53 21.19,-22.53 21.19,-22.53z"></path><g opacity="1" transform="matrix(2,0,0,2,0,0)"></g></g><g transform="matrix(1,0,0,1,1241.7349853515625,303.7340087890625)" opacity="1" style="display: block;"><path fill="rgb(38,41,44)" fill-opacity="1" d=" M87.68,-86.53 C87.68,-86.53 62.32,-86.53 62.32,-86.53 C47.48,-86.53 39.54,-81.35 34.84,-68.61 C34.84,-68.61 3.84,18.77 3.84,18.77 C2.76,22.01 1.76,25.65 0.9,29.13 C0,25.65 -1.06,21.95 -2.24,18.71 C-2.24,18.71 -33.24,-68.63 -33.24,-68.63 C-38,-81.51 -45.68,-86.53 -60.7,-86.53 C-60.7,-86.53 -87.68,-86.53 -87.68,-86.53 C-87.68,-86.53 -87.68,-44.39 -87.68,-44.39 C-87.68,-44.39 -80.68,-44.39 -80.68,-44.39 C-76.96,-44.39 -75.76,-43.11 -74.88,-40.77 C-74.88,-40.77 -26.9,86.53 -26.9,86.53 C-26.9,86.53 26.58,86.53 26.58,86.53 C26.58,86.53 74.56,-40.77 74.56,-40.77 C75.44,-43.11 76.66,-44.39 80.38,-44.39 C80.38,-44.39 87.68,-44.39 87.68,-44.39 C87.68,-44.39 87.68,-86.53 87.68,-86.53z"></path><g opacity="1" transform="matrix(2,0,0,2,0,0)"></g></g><g transform="matrix(1,0,0,1,1405.9930419921875,303.74700927734375)" opacity="1" style="display: block;"><path fill="rgb(38,41,44)" fill-opacity="1" d=" M5.29,-90.45 C51.01,-90.45 81.73,-57.37 81.73,-8.15 C81.73,-3.15 80.77,7.07 80.71,7.49 C80.71,7.49 80.45,10.63 80.45,10.63 C80.45,10.63 -32.35,10.63 -32.35,10.63 C-28.21,33.65 -10.77,48.33 13.07,48.33 C37.81,48.33 56.69,30.85 56.85,30.69 C56.85,30.69 60.01,27.75 60.01,27.75 C60.01,27.75 80.69,62.45 80.69,62.45 C80.69,62.45 78.75,64.35 78.75,64.35 C77.69,65.43 52.07,90.45 10.15,90.45 C-43.11,90.45 -81.73,52.41 -81.73,0.01 C-81.73,-53.25 -45.93,-90.45 5.29,-90.45z M-30.57,-24.97 C-30.57,-24.97 32.59,-24.97 32.59,-24.97 C30.65,-40.59 19.65,-51.59 5.29,-51.59 C-12.51,-51.59 -25.35,-41.95 -30.57,-24.97z"></path><g opacity="1" transform="matrix(2,0,0,2,0,0)"><g opacity="1" transform="matrix(1,0,0,1,0,0)"></g></g></g><g filter="url(#__lottie_element_33)" style="display: none;" transform="matrix(1,0,0,1,398.8280029296875,191.77099609375)" opacity="1"><g opacity="1" transform="matrix(1.9057600498199463,0,0,2.3334898948669434,-3.015000104904175,-3.0299999713897705)"><path fill="rgb(255,0,0)" fill-opacity="0" d=" M19.5,-19.5 C19.5,-19.5 19.5,19.5 19.5,19.5 C19.5,19.5 -19.5,19.5 -19.5,19.5 C-19.5,19.5 -19.5,-19.5 -19.5,-19.5 C-19.5,-19.5 19.5,-19.5 19.5,-19.5z"></path></g><g opacity="1" transform="matrix(1,0,0,1,0,0)"><path stroke-linecap="round" stroke-linejoin="round" fill-opacity="0" stroke="rgb(37,41,44)" stroke-opacity="1" stroke-width="12" d=" M30.545000076293945,30.527999877929688 C30.575000762939453,30.55699920654297 30.591999053955078,30.575000762939453 30.597999572753906,30.579999923706055"></path></g></g><g filter="url(#__lottie_element_30)" style="display: none;" transform="matrix(1,0,0,1,364.4530029296875,157.39599609375)" opacity="1"><g opacity="1" transform="matrix(1.9057600498199463,0,0,2.3334898948669434,-19.514999389648438,-20.030000686645508)"><path fill="rgb(255,0,0)" fill-opacity="0" d=" M19.5,-19.5 C19.5,-19.5 19.5,19.5 19.5,19.5 C19.5,19.5 -19.5,19.5 -19.5,19.5 C-19.5,19.5 -19.5,-19.5 -19.5,-19.5 C-19.5,-19.5 19.5,-19.5 19.5,-19.5z"></path></g><g opacity="1" transform="matrix(1,0,0,1,0,0)"><path stroke-linecap="round" stroke-linejoin="round" fill-opacity="0" stroke="rgb(37,41,44)" stroke-opacity="1" stroke-width="12" d=" M-35.08300018310547,-35.10100173950195 C-35.08399963378906,-35.10200119018555 -35.084999084472656,-35.10300064086914 -35.084999084472656,-35.10300064086914"></path></g></g><g filter="url(#__lottie_element_27)" style="display: none;" transform="matrix(1,0,0,1,364.4530029296875,191.77099609375)" opacity="1"><g opacity="1" transform="matrix(1.9057600498199463,0,0,2.3334898948669434,-3.015000104904175,-3.0299999713897705)"><path fill="rgb(255,0,0)" fill-opacity="0" d=" M19.5,-19.5 C19.5,-19.5 19.5,19.5 19.5,19.5 C19.5,19.5 -19.5,19.5 -19.5,19.5 C-19.5,19.5 -19.5,-19.5 -19.5,-19.5 C-19.5,-19.5 19.5,-19.5 19.5,-19.5z"></path></g><g opacity="1" transform="matrix(1,0,0,1,0,0)"><path stroke-linecap="round" stroke-linejoin="round" fill-opacity="0" stroke="rgb(37,41,44)" stroke-opacity="1" stroke-width="12" d="M0 0"></path></g></g><g filter="url(#__lottie_element_24)" style="display: none;" transform="matrix(1,0,0,1,411.3280029296875,144.89599609375)" opacity="1"><g opacity="1" transform="matrix(1.9057600498199463,0,0,2.3334898948669434,-3.015000104904175,-3.0299999713897705)"><path fill="rgb(255,0,0)" fill-opacity="0" d=" M19.5,-19.5 C19.5,-19.5 19.5,19.5 19.5,19.5 C19.5,19.5 -19.5,19.5 -19.5,19.5 C-19.5,19.5 -19.5,-19.5 -19.5,-19.5 C-19.5,-19.5 19.5,-19.5 19.5,-19.5z"></path></g><g opacity="1" transform="matrix(1,0,0,1,0,0)"><path stroke-linecap="round" stroke-linejoin="round" fill-opacity="0" stroke="rgb(37,41,44)" stroke-opacity="1" stroke-width="12" d="M0 0"></path></g></g><g filter="url(#__lottie_element_21)" style="display: none;" transform="matrix(-0.7071067690849304,-0.7071067690849304,0.7071067690849304,-0.7071067690849304,1125.4659423828125,130.2760009765625)" opacity="1"><g opacity="1" transform="matrix(1.9057600498199463,0,0,2.3334898948669434,-3.015000104904175,-3.0299999713897705)"><path fill="rgb(255,0,0)" fill-opacity="0" d=" M19.5,-19.5 C19.5,-19.5 19.5,19.5 19.5,19.5 C19.5,19.5 -19.5,19.5 -19.5,19.5 C-19.5,19.5 -19.5,-19.5 -19.5,-19.5 C-19.5,-19.5 19.5,-19.5 19.5,-19.5z"></path></g><g opacity="1" transform="matrix(1,0,0,1,0,0)"><path stroke-linecap="round" stroke-linejoin="round" fill-opacity="0" stroke="rgb(37,41,44)" stroke-opacity="1" stroke-width="12" d="M0 0"></path></g></g><g filter="url(#__lottie_element_18)" style="display: none;" transform="matrix(-0.7071067690849304,-0.7071067690849304,0.7071067690849304,-0.7071067690849304,1125.4659423828125,213.88999938964844)" opacity="1"><g opacity="1" transform="matrix(1,0,0,1,-3.015000104904175,-3.0299999713897705)"><path fill="rgb(255,0,0)" fill-opacity="0" d=" M19.5,-19.5 C19.5,-19.5 19.5,19.5 19.5,19.5 C19.5,19.5 -19.5,19.5 -19.5,19.5 C-19.5,19.5 -19.5,-19.5 -19.5,-19.5 C-19.5,-19.5 19.5,-19.5 19.5,-19.5z"></path></g><g opacity="1" transform="matrix(1,0,0,1,0,0)"><path stroke-linecap="round" stroke-linejoin="round" fill-opacity="0" stroke="rgb(37,41,44)" stroke-opacity="1" stroke-width="12" d=" M-6.684000015258789,-6.684000015258789 C-6.710000038146973,-6.710000038146973 -6.730000019073486,-6.730000019073486 -6.745999813079834,-6.745999813079834"></path></g></g><g filter="url(#__lottie_element_15)" style="display: none;" transform="matrix(-0.7071067690849304,-0.7071067690849304,0.7071067690849304,-0.7071067690849304,1164.77294921875,174.58299255371094)" opacity="1"><g opacity="1" transform="matrix(1,0,0,1,-5.077000141143799,6.34499979019165)"><path fill="rgb(255,0,0)" fill-opacity="0" d=" M19.5,-19.5 C19.5,-19.5 19.5,19.5 19.5,19.5 C19.5,19.5 -19.5,19.5 -19.5,19.5 C-19.5,19.5 -19.5,-19.5 -19.5,-19.5 C-19.5,-19.5 19.5,-19.5 19.5,-19.5z"></path></g><g opacity="1" transform="matrix(1,0,0,1,0,0)"><path stroke-linecap="round" stroke-linejoin="round" fill-opacity="0" stroke="rgb(37,41,44)" stroke-opacity="1" stroke-width="12" d=" M-16.0049991607666,16.115999221801758 C-16.027999877929688,16.138999938964844 -16.041000366210938,16.152000427246094 -16.04599952697754,16.156999588012695"></path></g></g><g filter="url(#__lottie_element_12)" style="display: none;" transform="matrix(-0.7071067690849304,-0.7071067690849304,0.7071067690849304,-0.7071067690849304,1086.1590576171875,174.58299255371094)" opacity="1"><g opacity="1" transform="matrix(1,0,0,1,7.422999858856201,-4.90500020980835)"><path fill="rgb(255,0,0)" fill-opacity="0" d=" M19.5,-19.5 C19.5,-19.5 19.5,19.5 19.5,19.5 C19.5,19.5 -19.5,19.5 -19.5,19.5 C-19.5,19.5 -19.5,-19.5 -19.5,-19.5 C-19.5,-19.5 19.5,-19.5 19.5,-19.5z"></path></g><g opacity="1" transform="matrix(1,0,0,1,0,0)"><path stroke-linecap="round" stroke-linejoin="round" fill-opacity="0" stroke="rgb(37,41,44)" stroke-opacity="1" stroke-width="12" d=" M16.249000549316406,-16.138999938964844 C16.301000595092773,-16.19099998474121 16.34600067138672,-16.236000061035156 16.384000778198242,-16.273000717163086"></path></g></g></g></svg>